<svg width="410" height="21" viewBox="0 0 410 21" fill="none" xmlns="http://www.w3.org/2000/svg">
<line x1="4.37114e-08" y1="10.5" x2="175" y2="10.5" stroke="#C2C2C2"/>
<line x1="235" y1="10.5" x2="410" y2="10.5" stroke="#C2C2C2"/>
<path d="M200.502 15.098C199.597 15.098 198.771 14.888 198.024 14.468C197.277 14.0387 196.685 13.446 196.246 12.69C195.817 11.9247 195.602 11.066 195.602 10.114C195.602 9.162 195.817 8.308 196.246 7.552C196.685 6.78667 197.277 6.194 198.024 5.774C198.771 5.34467 199.597 5.13 200.502 5.13C201.417 5.13 202.247 5.34467 202.994 5.774C203.741 6.194 204.329 6.782 204.758 7.538C205.187 8.294 205.402 9.15267 205.402 10.114C205.402 11.0753 205.187 11.934 204.758 12.69C204.329 13.446 203.741 14.0387 202.994 14.468C202.247 14.888 201.417 15.098 200.502 15.098ZM200.502 13.992C201.183 13.992 201.795 13.8333 202.336 13.516C202.887 13.1987 203.316 12.746 203.624 12.158C203.941 11.57 204.1 10.8887 204.1 10.114C204.1 9.33 203.941 8.64867 203.624 8.07C203.316 7.482 202.891 7.02933 202.35 6.712C201.809 6.39467 201.193 6.236 200.502 6.236C199.811 6.236 199.195 6.39467 198.654 6.712C198.113 7.02933 197.683 7.482 197.366 8.07C197.058 8.64867 196.904 9.33 196.904 10.114C196.904 10.8887 197.058 11.57 197.366 12.158C197.683 12.746 198.113 13.1987 198.654 13.516C199.205 13.8333 199.821 13.992 200.502 13.992ZM212.222 15L209.898 11.01H208.358V15H207.084V5.242H210.234C210.971 5.242 211.592 5.368 212.096 5.62C212.609 5.872 212.992 6.21267 213.244 6.642C213.496 7.07133 213.622 7.56133 213.622 8.112C213.622 8.784 213.426 9.37667 213.034 9.89C212.651 10.4033 212.073 10.744 211.298 10.912L213.748 15H212.222ZM208.358 9.988H210.234C210.925 9.988 211.443 9.82 211.788 9.484C212.133 9.13867 212.306 8.68133 212.306 8.112C212.306 7.53333 212.133 7.08533 211.788 6.768C211.452 6.45067 210.934 6.292 210.234 6.292H208.358V9.988Z" fill="#C2C2C2"/>
</svg>
